<svg xmlns="http://www.w3.org/2000/svg" viewBox="0 0 1200 900" role="img" aria-labelledby="title3 desc3">
  <title id="title3">Placeholder: Mike's St. Thomas treatment room</title>
  <desc id="desc3">Illustrative placeholder. Replace with a real horizontal photo of Mike in his treatment environment, leaving negative space for headline text.</desc>
  <defs>
    <linearGradient id="paper3" x1="0" y1="0" x2="1" y2="1">
      <stop offset="0" stop-color="#F5F0E5"/>
      <stop offset="1" stop-color="#EAE1CE"/>
    </linearGradient>
  </defs>
  <rect width="1200" height="900" fill="url(#paper3)"/>
  <g fill="none" stroke="#3C4E33" stroke-width="4" stroke-linecap="round" stroke-linejoin="round" opacity="0.7">
    <!-- window -->
    <rect x="120" y="140" width="260" height="320" rx="6"/>
    <line x1="250" y1="140" x2="250" y2="460"/>
    <line x1="120" y1="300" x2="380" y2="300"/>
    <!-- curtains -->
    <path d="M100 140c10 100 -10 220 10 320"/>
    <path d="M400 140c-10 100 10 220 -10 320"/>
    <!-- floor -->
    <line x1="60" y1="700" x2="1140" y2="700"/>
    <!-- treatment table, made up, empty -->
    <rect x="560" y="520" width="480" height="60" rx="10"/>
    <line x1="590" y1="580" x2="590" y2="700"/>
    <line x1="1010" y1="580" x2="1010" y2="700"/>
    <path d="M560 520c20 -20 460 -20 480 0"/>
    <!-- side table with plant -->
    <rect x="440" y="600" width="90" height="50" rx="4"/>
    <line x1="450" y1="650" x2="450" y2="700"/>
    <line x1="510" y1="650" x2="510" y2="700"/>
    <path d="M485 600c0 -30 -30 -40 -30 -70M485 600c0 -30 30 -40 30 -70M485 600v-90"/>
    <!-- wall art squares -->
    <rect x="440" y="220" width="70" height="90" rx="3"/>
    <rect x="360" y="240" width="55" height="70" rx="3"/>
  </g>
  <text x="600" y="800" text-anchor="middle" font-family="Georgia, serif" font-size="30" fill="#6B6355">Photo coming soon — Mike's St. Thomas treatment room</text>
</svg>
